/* XPM */
static char * C:\Users\mgil\Desktop\icon_xpm[] = {
"48 48 589 2",
"  	c #014495",
". 	c #024595",
"+ 	c #004395",
"@ 	c #004393",
"# 	c #004394",
"$ 	c #044696",
"% 	c #094998",
"& 	c #0C4B99",
"* 	c #0D4D9A",
"= 	c #0C4C9A",
"- 	c #0A4B99",
"; 	c #074897",
"> 	c #004294",
", 	c #014594",
"' 	c #003F92",
") 	c #003E92",
"! 	c #1F5AA1",
"~ 	c #4878B2",
"{ 	c #6991C1",
"] 	c #8CA9CF",
"^ 	c #A5BDD8",
"/ 	c #B5C9E0",
"( 	c #BDCFE3",
"_ 	c #BACCE1",
": 	c #AFC5DE",
"< 	c #9CB6D5",
"[ 	c #80A1CA",
"} 	c #5D88BB",
"| 	c #396DAC",
"1 	c #003C90",
"2 	c #004193",
"3 	c #014595",
"4 	c #003F91",
"5 	c #004093",
"6 	c #5985B9",
"7 	c #B9CBE2",
"8 	c #DCE6F1",
"9 	c #F3F6FA",
"0 	c #FFFFFF",
"a 	c #FEFEFF",
"b 	c #EBF0F6",
"c 	c #D5E0ED",
"d 	c #9AB5D5",
"e 	c #2D64A7",
"f 	c #003C91",
"g 	c #014496",
"h 	c #014494",
"i 	c #024495",
"j 	c #5D89BC",
"k 	c #EBF0F5",
"l 	c #FFFFFE",
"m 	c #FEFFFF",
"n 	c #FEFFFE",
"o 	c #BCCEE2",
"p 	c #245DA4",
"q 	c #024496",
"r 	c #4777B2",
"s 	c #CFDCEB",
"t 	c #FFFEFE",
"u 	c #FFFEFF",
"v 	c #F1F4F8",
"w 	c #96B1D3",
"x 	c #235DA3",
"y 	c #004092",
"z 	c #0E4D9A",
"A 	c #9DB7D6",
"B 	c #F8FAFC",
"C 	c #DAE3EF",
"D 	c #8299C6",
"E 	c #4869AA",
"F 	c #6984BA",
"G 	c #C3CFE4",
"H 	c #DEE7F1",
"I 	c #628CBD",
"J 	c #003990",
"K 	c #225CA2",
"L 	c #D5E0EE",
"M 	c #C1CEE4",
"N 	c #4C6EAF",
"O 	c #1D4495",
"P 	c #3A5DA4",
"Q 	c #738CBF",
"R 	c #7E97C4",
"S 	c #204999",
"T 	c #3358A0",
"U 	c #9CB0D2",
"V 	c #F7FAFC",
"W 	c #FBFBFD",
"X 	c #9AB5D4",
"Y 	c #004194",
"Z 	c #004495",
"` 	c #024494",
" .	c #024396",
"..	c #285FA5",
"+.	c #DCE5F0",
"@.	c #FAFBFC",
"#.	c #E2E8F2",
"$.	c #A1B3D5",
"%.	c #4062A7",
"&.	c #284D9B",
"*.	c #7B92C2",
"=.	c #E5ECF4",
"-.	c #BEC9E1",
";.	c #90A4CC",
">.	c #F3F7FA",
",.	c #98ACD1",
"'.	c #385BA3",
").	c #284D9A",
"!.	c #7992C3",
"~.	c #D0DAEB",
"{.	c #F2F4F8",
"].	c #0B4B99",
"^.	c #004594",
"/.	c #2962A7",
"(.	c #F1F5F8",
"_.	c #B1C1DC",
":.	c #6683BA",
"<.	c #3C60A7",
"[.	c #5976B1",
"}.	c #A8B9D7",
"|.	c #F1F4F9",
"1.	c #B5C2DD",
"2.	c #8FA3CC",
"3.	c #FDFEFF",
"4.	c #C5D0E5",
"5.	c #758DBF",
"6.	c #3E62A7",
"7.	c #4A6BAB",
"8.	c #8CA2CA",
"9.	c #D5DEEC",
"0.	c #99B5D4",
"a.	c #004293",
"b.	c #1A56A0",
"c.	c #DDE6F0",
"d.	c #E9EEF5",
"e.	c #7E97C5",
"f.	c #2F529E",
"g.	c #3B5FA5",
"h.	c #95AACE",
"i.	c #DBE1EE",
"j.	c #F7F9FC",
"k.	c #E8EDF4",
"l.	c #BCCAE1",
"m.	c #6280B8",
"n.	c #224999",
"o.	c #4D6DAF",
"p.	c #AEBEDA",
"q.	c #9CB5D6",
"r.	c #003A8F",
"s.	c #084997",
"t.	c #B0C5DE",
"u.	c #FEFEFE",
"v.	c #FBFCFD",
"w.	c #D1DBEB",
"x.	c #6683B8",
"y.	c #1B4395",
"z.	c #496BAC",
"A.	c #BECCE2",
"B.	c #EAF1F7",
"C.	c #8099C6",
"D.	c #254D9A",
"E.	c #2A519D",
"F.	c #92A6CD",
"G.	c #E9EFF6",
"H.	c #FDFDFD",
"I.	c #FBFCFC",
"J.	c #648CBE",
"K.	c #014394",
"L.	c #5F89BC",
"M.	c #D0D9EA",
"N.	c #9BAFD1",
"O.	c #4A6CAD",
"P.	c #3C5EA5",
"Q.	c #7992C2",
"R.	c #FBFCFE",
"S.	c #AEBDDA",
"T.	c #5876B3",
"U.	c #3358A1",
"V.	c #5F7DB6",
"W.	c #ACBAD9",
"X.	c #DFE6F1",
"Y.	c #E1E9F3",
"Z.	c #225DA2",
"`.	c #014395",
" +	c #0E4E9B",
".+	c #EEF3F8",
"++	c #AFC0DB",
"@+	c #3C61A6",
"#+	c #0E3990",
"$+	c #6581B8",
"%+	c #E2EAF4",
"&+	c #FAFCFE",
"*+	c #9EB3D4",
"=+	c #2F559F",
"-+	c #174093",
";+	c #6C87BC",
">+	c #96B2D3",
",+	c #9DB7D5",
"'+	c #F8FAFB",
")+	c #C8D3E7",
"!+	c #5877B3",
"~+	c #194093",
"{+	c #5474B1",
"]+	c #CBD6E8",
"^+	c #E4EBF3",
"/+	c #7B96C3",
"(+	c #1F4697",
"_+	c #3457A1",
":+	c #97AED2",
"<+	c #EAEFF6",
"[+	c #FCFDFE",
"}+	c #245EA4",
"|+	c #1E59A1",
"1+	c #D2DBEA",
"2+	c #89A2CB",
"3+	c #DAE2EE",
"4+	c #F7F9FB",
"5+	c #DFE7F3",
"6+	c #748FBF",
"7+	c #284E9A",
"8+	c #496BAB",
"9+	c #A3B4D5",
"0+	c #E2E8F1",
"a+	c #FAFCFC",
"b+	c #E6EBF4",
"c+	c #B1C0DB",
"d+	c #5A77B3",
"e+	c #264B99",
"f+	c #5271AF",
"g+	c #BCCBE2",
"h+	c #F9F9FD",
"i+	c #D9E1EE",
"j+	c #98ACCF",
"k+	c #9FB2D4",
"l+	c #BBCDE2",
"m+	c #003D91",
"n+	c #C1CCE1",
"o+	c #07328B",
"p+	c #254C9B",
"q+	c #627FB6",
"r+	c #A3B5D6",
"s+	c #E8EEF6",
"t+	c #A5B5D6",
"u+	c #5D7BB5",
"v+	c #3E60A6",
"w+	c #6682B8",
"x+	c #B6C4DE",
"y+	c #8EA2CC",
"z+	c #F6FAFC",
"A+	c #B6C5DE",
"B+	c #6B85B9",
"C+	c #3D61A6",
"D+	c #93A7CD",
"E+	c #EBF1F7",
"F+	c #5876B2",
"G+	c #4265A8",
"H+	c #2C529E",
"I+	c #849AC6",
"J+	c #2D65A7",
"K+	c #17549E",
"L+	c #D8E2EF",
"M+	c #C3CEE3",
"N+	c #123C91",
"O+	c #174193",
"P+	c #163F93",
"Q+	c #1D4596",
"R+	c #2C539E",
"S+	c #6B88BC",
"T+	c #DFE6F0",
"U+	c #90A6CC",
"V+	c #3257A1",
"W+	c #2E539D",
"X+	c #8CA2CB",
"Y+	c #F6F9FC",
"Z+	c #B7C3DD",
"`+	c #8EA1CB",
" @	c #859DC7",
".@	c #2F549F",
"+@	c #8BA2CC",
"@@	c #D9E0EE",
"#@	c #F5F7FA",
"$@	c #E1E8F2",
"%@	c #708BBF",
"&@	c #234A98",
"*@	c #3F61A6",
"=@	c #ECEFF6",
"-@	c #7591C2",
";@	c #8198C5",
">@	c #003B90",
",@	c #4A7AB4",
"'@	c #C4CEE3",
")@	c #123C92",
"!@	c #184193",
"~@	c #194195",
"{@	c #184294",
"]@	c #1A4194",
"^@	c #153F93",
"/@	c #143C92",
"(@	c #5273B1",
"_@	c #C3D2E7",
":@	c #F6F7FB",
"<@	c #FDFEFE",
"[@	c #B0BFDC",
"}@	c #3A5EA4",
"|@	c #204897",
"1@	c #7690C1",
"2@	c #96AACE",
"3@	c #8BA2CB",
"4@	c #D0D9E9",
"5@	c #6181B8",
"6@	c #1C4396",
"7@	c #4064A7",
"8@	c #AFBEDB",
"9@	c #FCFDFD",
"0@	c #F4F7FA",
"a@	c #C2CEE4",
"b@	c #5A79B3",
"c@	c #1B4496",
"d@	c #5172AF",
"e@	c #CBD6E9",
"f@	c #7593C0",
"g@	c #8197C4",
"h@	c #799CC8",
"i@	c #C4CEE4",
"j@	c #184194",
"k@	c #194194",
"l@	c #184192",
"m@	c #0A348D",
"n@	c #395EA6",
"o@	c #8DA2CB",
"p@	c #CCD6E9",
"q@	c #FBFDFC",
"r@	c #C6D3E5",
"s@	c #6F8ABD",
"t@	c #3559A2",
"u@	c #284E9B",
"v@	c #3E60A7",
"w@	c #7A92C1",
"x@	c #D2DCEB",
"y@	c #CCD6E8",
"z@	c #8BA1C9",
"A@	c #4365A8",
"B@	c #8097C5",
"C@	c #D9E2EE",
"D@	c #7592C2",
"E@	c #8098C5",
"F@	c #EBF0F7",
"G@	c #0A4A98",
"H@	c #A9C0DB",
"I@	c #153E92",
"J@	c #143D92",
"K@	c #284F9C",
"L@	c #4E6EAD",
"M@	c #A0B3D5",
"N@	c #F6FAFD",
"O@	c #E3E9F2",
"P@	c #CBD5E6",
"Q@	c #ECF0F6",
"R@	c #F8FCFD",
"S@	c #A3B5D7",
"T@	c #4566A9",
"U@	c #3359A2",
"V@	c #728CBF",
"W@	c #C0CDE2",
"X@	c #EDF1F7",
"Y@	c #8197C5",
"Z@	c #5D87BC",
"`@	c #10509A",
" #	c #D0DCEC",
".#	c #184195",
"+#	c #174294",
"@#	c #173F94",
"##	c #274C9A",
"$#	c #7E9AC6",
"%#	c #E4EBF6",
"&#	c #E6ECF4",
"*#	c #839CC6",
"=#	c #224697",
"-#	c #2F559E",
";#	c #9BAFD3",
">#	c #EFF3F7",
",#	c #7EA0C9",
"'#	c #15539D",
")#	c #EEF3F7",
"!#	c #174194",
"~#	c #0E378E",
"{#	c #A5B5D5",
"]#	c #CFD9EB",
"^#	c #4E6DAD",
"/#	c #B4C6E0",
"(#	c #18569F",
"_#	c #143E93",
":#	c #92A4CC",
"<#	c #4A6BAC",
"[#	c #FAFDFD",
"}#	c #8297C5",
"|#	c #0A4B98",
"1#	c #1A57A0",
"2#	c #94A6CD",
"3#	c #C4D1E5",
"4#	c #F9FBFC",
"5#	c #BACDE2",
"6#	c #0C4D9A",
"7#	c #1B57A0",
"8#	c #153E93",
"9#	c #93A6CD",
"0#	c #C4D1E4",
"a#	c #5271AE",
"b#	c #BDCEE3",
"c#	c #1A569F",
"d#	c #C5D1E5",
"e#	c #7592C1",
"f#	c #B6C9E0",
"g#	c #A5BDDA",
"h#	c #094A98",
"i#	c #11519B",
"j#	c #C5D1E6",
"k#	c #5271B0",
"l#	c #F8FBFD",
"m#	c #8BAACE",
"n#	c #BACBE2",
"o#	c #153E91",
"p#	c #C5D2E4",
"q#	c #96ACD1",
"r#	c #CAD5E7",
"s#	c #F2F5FA",
"t#	c #6A91C1",
"u#	c #004494",
"v#	c #054698",
"w#	c #8DAACF",
"x#	c #4868AA",
"y#	c #B4C2DC",
"z#	c #8EA4CC",
"A#	c #6C88BC",
"B#	c #92A7CD",
"C#	c #EEF3F9",
"D#	c #5C87BA",
"E#	c #123C90",
"F#	c #5171AF",
"G#	c #F9FBFD",
"H#	c #FCFCFE",
"I#	c #EEF2F8",
"J#	c #AFBFDC",
"K#	c #4367A8",
"L#	c #6D88BE",
"M#	c #DFE7F2",
"N#	c #2C63A6",
"O#	c #94A7CE",
"P#	c #BCCCE1",
"Q#	c #5170AE",
"R#	c #6D88BC",
"S#	c #C7D4E7",
"T#	c #FDFDFE",
"U#	c #BACCE2",
"V#	c #003E91",
"W#	c #889EC9",
"X#	c #7893C3",
"Y#	c #879EC9",
"Z#	c #C3CFE3",
"`#	c #5985BB",
" $	c #517EB7",
".$	c #C9D4E7",
"+$	c #7F99C5",
"@$	c #4F71B1",
"#$	c #A0B3D4",
"$$	c #7E98C6",
"%$	c #8097C3",
"&$	c #EAF0F5",
"*$	c #DAE4EF",
"=$	c #C6D0E5",
"-$	c #184196",
";$	c #4265A9",
">$	c #3D62A7",
",$	c #879DC8",
"'$	c #5E89BD",
")$	c #3A6DAD",
"!$	c #DFE4F0",
"~$	c #4D6FAD",
"{$	c #113A8F",
"]$	c #153F92",
"^$	c #194294",
"/$	c #F5F8FB",
"($	c #C7D2E6",
"_$	c #8AA0C9",
":$	c #395DA3",
"<$	c #4A69AB",
"[$	c #C0CBE2",
"}$	c #004295",
"|$	c #97B3D4",
"1$	c #CBD5E8",
"2$	c #8BA1CB",
"3$	c #0D378E",
"4$	c #143E91",
"5$	c #91A6CD",
"6$	c #4262A8",
"7$	c #7D95C3",
"8$	c #C5D0E4",
"9$	c #FBFDFE",
"0$	c #215CA3",
"a$	c #D8E3EE",
"b$	c #F6F9FB",
"c$	c #B7C8E2",
"d$	c #4668AA",
"e$	c #133C91",
"f$	c #174195",
"g$	c #94A7CD",
"h$	c #DCE5F2",
"i$	c #6685B9",
"j$	c #1B4294",
"k$	c #B4C4DE",
"l$	c #F6F8FB",
"m$	c #9EB8D6",
"n$	c #5682B9",
"o$	c #F6F8FA",
"p$	c #CED8E8",
"q$	c #6A86BC",
"r$	c #30549F",
"s$	c #1A4595",
"t$	c #FFFFFD",
"u$	c #E7EBF5",
"v$	c #5475B2",
"w$	c #244998",
"x$	c #607FB7",
"y$	c #C6D3E7",
"z$	c #D6E1ED",
"A$	c #6B93C1",
"B$	c #E4EAF3",
"C$	c #5B7AB5",
"D$	c #1F4698",
"E$	c #0D368E",
"F$	c #163F92",
"G$	c #FCFEFE",
"H$	c #C3CFE5",
"I$	c #6F89BC",
"J$	c #4E6EAE",
"K$	c #95A8CE",
"L$	c #225DA3",
"M$	c #638CBE",
"N$	c #DAE2EF",
"O$	c #88A2CD",
"P$	c #234A9A",
"Q$	c #C5D2E5",
"R$	c #4C6DAE",
"S$	c #96ACD0",
"T$	c #3A5BA3",
"U$	c #264D9A",
"V$	c #8199C6",
"W$	c #D4DDEC",
"X$	c #F4F6F9",
"Y$	c #DFE7F1",
"Z$	c #2760A4",
"`$	c #6C92C2",
" %	c #3A5CA4",
".%	c #184093",
"+%	c #C7D3E6",
"@%	c #08338C",
"#%	c #9AAED2",
"$%	c #F8FAFD",
"%%	c #DDE6F1",
"&%	c #2B61A6",
"*%	c #C2D0E5",
"=%	c #E1E7F1",
"-%	c #B2C1DD",
";%	c #B0C6DE",
">%	c #97B2D4",
",%	c #EFF2F9",
"'%	c #084998",
")%	c #DBE4EF",
"!%	c #9CB7D5",
"~%	c #0D4E9A",
"{%	c #507EB6",
"]%	c #BBCDE3",
"^%	c #E3EBF3",
"/%	c #F4F6FA",
"(%	c #9BB5D5",
"_%	c #003F93",
":%	c #2B63A6",
"<%	c #5C87BB",
"[%	c #8DABD0",
"}%	c #B9CCE2",
"|%	c #DEE6F1",
"1%	c #D1DDEC",
"2%	c #AAC0DB",
"3%	c #7A9DC7",
"4%	c #12519C",
"5%	c #17549F",
"6%	c #1B579F",
"7%	c #19559E",
"8%	c #104F9B",
"                                . + @ # $ % & * = - ; . > # ,                                   ",
"                            + ' ) ! ~ { ] ^ / ( _ : < [ } | * 1 2                               ",
"                        3 4 5 6 7 8 9 0 0 0 0 0 0 0 0 0 a b c d e f > g   g h g                 ",
"                  h i   > j k 0 l l 0 0 0 0 0 l 0 m l 0 0 0 n l 0 o p @ g , q ,                 ",
"                i +   r s 0 l m t u 0 0 0 0 0 v 0 0 0 0 0 0 l l m 0 0 w x 2                     ",
"            h   y z A B 0 u 0 l 0 0 0 0 0 C D E F G 0 0 0 0 l l 0 m l 0 H I J     g             ",
"          i   # K L l 0 0 0 l 0 l 0 0 M N O P Q R S T U V 0 0 l 0 0 0 0 0 W X Y Z `  .          ",
"            # ..+.0 m m 0 0 0 @.#.$.%.&.*.=.-.;.0 >.,.'.).!.~.{.l 0 l 0 l l 0 d ].^.h           ",
"      i g ' /.H 0 l l 0 0 (._.:.<.[.}.|.0 0 1.2.0 0 0 3.4.5.6.7.8.9.0 0 l 0 0 0 0.Y             ",
"      g a.b.c.0 l 0 0 d.e.f.g.h.i.j.0 0 0 0 1.2.0 0 0 0 0 m k.l.m.n.o.p.0 0 0 l 0 q.r.g h       ",
"        s.t.l u.v.w.x.y.z.A.0 0 0 0 0 0 0 0 1.2.0 0 0 0 0 0 0 0 0 B.C.D.E.F.G.H.n I.J.2 3 g     ",
"      K.L.0 M.N.O.P.Q.9.0 0 0 0 m 0 0 0 0 0 1.2.0 0 0 0 0 0 l 0 u 0 0 R.S.T.U.V.W.X.Y.Z.  i     ",
"    `. +.+0 ++@+#+$+%+0 0 0 0 0 l l 0 0 0 0 1.2.0 0 0 0 0 0 l 0 t m 0 0 &+*+=+-+;+w.0 >+#       ",
"    f ,+0 0 u.'+)+!+~+{+]+0 l l 0 0 0 0 0 0 1.2.0 0 0 0 0 0 l l 0 0 ^+/+(+_+:+<+[+0 0 0 }+#     ",
"  > |+0 1+2+3+4+0 0 5+6+7+8+9+0+a+0 0 0 0 0 1.2.0 0 0 0 0 0 [+b+c+d+e+f+g+0 0 h+i+j+k+0 l+f     ",
"i m+0.0 n+o+p+q+r+s+0 0 G.t+u+v+w+x+j.0 0 0 1.y+0 0 0 0 z+A+B+C+f+D+i+0 0 E+9+F+G+H+I+0 0 J+2 3 ",
"Z K+L+l M+N+O+P+Q+R+S+L+0 0 B T+U+V+W+X+Y+0 Z+`+0 0 E+ @.@.@+@@@#@0 0 $@%@&@*@r+=@-@;@0 l d >@  ",
"@ ,@9 0 '@)@!@~@{@]@^@/@(@_@:@<@0 0 [@}@|@1@2@3@4@5@6@7@8@9@0 n 0@a@b@c@d@e@0 0 0 f@g@0 0 c * g ",
". h@0 0 i@N+j@j@k@k@l@j@N+m@n@o@p@q@0 0 r@s@t@u@v@w@x@0 0 <@y@z@A@v+B@C@0 0 l 0 0 D@E@0 l F@| # ",
"G@H@0 0 i@N+!@!@!@!@!@!@!@!@I@J@K@L@M@N@0 0 O@P@Q@0 0 R@S@T@U@V@W@X@0 0 0 0 0 0 0 D@Y@0 0 a Z@> ",
"`@ #0 0 i@N+!@!@!@!@!@j@j@!@j@.#+#j@@###$#%#0 l 0 &#*#=#-#;#>#l t u 0 l 0 0 0 0 0 D@Y@0 0 0 ,#. ",
"'#)#0 0 i@N+!@!@!@!@!@!@!@!@j@!@!@j@!@!#~#)@{#0 ]#^@^#/#0 0 0 l 0 0 0 0 0 0 0 0 0 D@Y@0 0 0 < ; ",
"(#0 0 0 i@N+!@!@!@!@!@!@!@!@!@!@!@!@!@!@!@_#:#0 G <#[#0 0 m 0 0 0 0 0 0 0 0 0 0 0 D@}#0 0 0 t.|#",
"1#0 0 0 i@N+!@!@!@!@!@!@!@!@!@!@!@!@!@!@!@^@2#0 3#f+4#0 0 0 0 0 0 0 0 0 0 0 0 0 0 D@}#0 0 0 5#6#",
"7#0 0 0 i@N+!@!@!@!@!@!@!@!@!@!@!@!@!@!@!@8#9#0 0#a#4#0 0 0 0 0 0 0 0 0 0 0 0 0 0 D@}#0 0 0 b#* ",
"c#0 0 0 i@N+!@!@!@!@!@!@!@!@!@!@!@!@!@!@!@8#2#l d#f+4#0 0 0 0 0 0 0 0 0 0 0 0 0 0 e#Y@0 0 0 f#].",
"K+V 0 0 i@N+!@!@!@!@!@!@!@!@!@!@!@!@!@!@!@8#2#l d#f+4#0 0 0 0 0 0 0 0 0 0 0 0 0 0 e#Y@0 0 0 g#h#",
"i#c.0 0 i@N+!@!@!@!@!@!@!@!@!@!@!@!@!@!@!@I@2#0 j#k#l#0 0 0 0 0 0 0 0 0 0 0 0 0 0 e#Y@0 0 0 m#$ ",
"* n#0 0 i@N+!@!@!@!@!@!@!@!@!@!@!@!@!@!@!@o#2#0 p#D.q#r#s#0 0 l l 0 0 0 0 0 0 0 0 e#Y@0 0 0 t#u#",
"v#w#0 0 i@N+!@!@!@!@!@!@!@!@!@!@!@!@!@!@!@o#2#0 3#x#y#z#A#B#C#0 0 0 0 0 0 0 0 0 0 e#Y@0 0 9 ~ @ ",
"# D#[+0 '@E#!@!@!@!@!@!@!@!@!@!@!@!@!@!@!@o#2#0 3#F#G#H#I#J#K#L#M#0 0 0 0 l 0 0 0 D@Y@0 0 c.! + ",
"+ N#^+l M+E#!@!@!@!@!@!@!@!@!@!@!@!@!@!@!@o#O#0 j#a#4#0 0 0 0 P#Q#R#S#Q@T#0 l n 0 D@E@0 l U#V#  ",
"  a.l+0 M+E#!@!@!@!@!@!@!@!@!@!@!@!@!@!@!@o#O#0 j#a#4#l l 0 0 0 0 1+W#X#Y#Z#0 0 0 D@E@0 0 `#'   ",
"  '  $0 M+N+!@j@!@!@!@!@!@!@!@!@!@!@!@!@!@o#2#0 j#a#4#0 0 0 0 0 0 0 0 X@.$+$@$#$0 $$%$0 &$5 u#h ",
"    r.*$=$E#-$j@!@!@!@!@!@!@!@!@!@!@!@!@!@o#2#0 j#a#4#0 0 0 0 0 0 l 0 0 l 0 .+Y#;$>$,$0 '$'     ",
"    2 )$!$~$p+{$]$!@!@^$!@!@!@!@!@!@!@!@!@o#2#0 j#a#4#0 0 0 0 0 0 0 l 0 0 /$($_$:$<$[$c > i     ",
"    g }$|$0 1$2$T 3$4$!@!@j@!@!@j@j@!@!@!@o#2#0 d#a#4#0 0 0 u 0 0 0 0 E+5$6$g.7$8$0@9$r i       ",
"        0$a$0 <@b$c$d$e$P+{@k@f$j@!@!@!@!@o#g$0 d#a#4#m t 0 0 0 0 h$i$j$;$k$l$T#l 0 m$3   i     ",
"    q g 4 n$o$l l 0 0 p$q$r$s$I@-+j@!@!@!@o#g$0 d#a#4#t$0 3.u$c+v$w$x$y$0 0 0 n 0 z$* }$3       ",
"      i   V#A$0 0 l 0 0 0 B$#$C$D$E$F$!@j@I@g$0 d#f+0 G$H$I$v+J$K$X.0 0 0 m l 0 +.L$5 3 i h     ",
"          `.+ M$0 l u l 0 0 0 :@N$O$P$3$!@^@2#0 Q$R$S$T$U$V$W$X$0 0 0 0 0 0 0 Y$Z$> g           ",
"              + `$o$0 l 0 0 0 0 l 0 G#r+ %.%O#0 +%@%V+#%$%0 0 l t 0 0 0 0 0 %%&%> g i           ",
"            h h m+n$a$0 0 0 0 0 0 u.0 0 0 *%4.0 =%-%0 0 0 0 0 0 l 0 0 0 0 ;%c#'   i h           ",
"                  ' K >%0 0 l 0 0 0 0 0 0 0 0 0 0 0 0 0 0 0 0 m 0 m 0 ,%L.'%>                   ",
"                h g q # )$)%0 0 0 l 0 0 0 0 0 0 0 0 0 0 0 0 u 0 0 0 !%~%`.    h                 ",
"                  , g   Y r.{%]%^%T#0 0 0 0 0 0 0 0 0 0 0 0 /%L+(%! >@+   , g                   ",
"                    h     h _%2 :%<%[%}%|%j.0 0 0 0 .+1%2%3%,@K+1 >       g                     ",
"                                + @ $ = 4%5%c#6%6%7%'#8%h#  + # g                               "};
